<?xml version="1.0" standalone="no"?>
<!DOCTYPE svg PUBLIC "-//W3C//DTD SVG 20010904//EN"
 "http://www.w3.org/TR/2001/REC-SVG-20010904/DTD/svg10.dtd">
<svg version="1.0" xmlns="http://www.w3.org/2000/svg"
 width="792.000000pt" height="792.000000pt" viewBox="0 0 792.000000 792.000000"
 preserveAspectRatio="xMidYMid meet">
<metadata>
Created by potrace 1.14, written by Peter Selinger 2001-2017
</metadata>
<g transform="translate(0.000000,792.000000) scale(0.100000,-0.100000)"
fill="#000000" stroke="none">
<path d="M5387 7275 c-26 -7 -50 -13 -52 -14 -3 -1 -6 -1 -7 -2 -3 -1 -11 -2
-58 -13 -14 -3 -35 -7 -48 -10 -13 -3 -31 -7 -40 -10 -9 -3 -33 -7 -52 -10
-19 -3 -46 -8 -60 -11 -34 -7 -88 -14 -135 -19 -22 -3 -53 -7 -70 -10 -16 -2
-52 -7 -80 -10 -27 -4 -61 -8 -75 -11 -14 -2 -43 -7 -65 -10 -22 -4 -49 -8
-60 -10 -11 -1 -42 -6 -70 -10 -27 -4 -55 -11 -61 -16 -6 -5 -13 -7 -16 -4 -2
3 -20 0 -39 -6 -19 -5 -43 -12 -53 -14 -89 -20 -336 -128 -336 -147 0 -5 -6
-8 -13 -8 -15 0 -129 -91 -175 -140 -49 -51 -134 -185 -165 -258 -35 -82 -57
-168 -63 -250 -3 -37 -7 -68 -8 -69 -2 -2 -26 30 -54 70 -28 39 -56 78 -62 84
-6 7 -32 52 -58 100 -26 47 -52 88 -59 90 -7 3 -35 -41 -67 -104 -30 -61 -74
-130 -100 -158 -25 -27 -46 -58 -46 -67 0 -21 31 -43 156 -106 141 -71 205
-114 272 -181 67 -69 118 -149 143 -228 28 -83 27 -83 -33 -78 -144 12 -273
33 -409 65 -26 6 -53 13 -60 14 -8 2 -21 6 -29 9 -26 10 -272 66 -345 78 -72
12 -281 16 -350 6 -89 -13 -174 -33 -275 -63 -47 -15 -87 -26 -90 -26 -3 0
-13 -7 -22 -15 -10 -9 -18 -13 -18 -9 0 3 -13 0 -30 -9 -16 -9 -30 -12 -30 -8
0 5 -4 3 -8 -3 -4 -6 -36 -26 -72 -43 -182 -88 -339 -212 -449 -356 -17 -22
-34 -44 -39 -50 -38 -47 -121 -215 -155 -315 -25 -73 -44 -139 -63 -225 -10
-42 -44 -250 -50 -300 -28 -262 -22 -748 12 -940 3 -16 7 -41 9 -55 2 -14 6
-43 10 -65 3 -22 9 -53 11 -70 8 -51 63 -266 86 -335 61 -191 202 -511 262
-595 11 -16 20 -32 20 -35 -1 -6 2 -12 102 -170 43 -69 81 -127 84 -130 3 -3
34 -45 69 -95 36 -49 91 -123 123 -162 32 -40 58 -75 58 -78 0 -3 10 -16 23
-28 12 -12 40 -44 62 -72 22 -27 60 -72 85 -99 25 -27 57 -63 73 -80 102 -113
261 -266 352 -337 67 -52 152 -108 157 -103 3 2 11 -2 18 -11 7 -8 20 -15 29
-15 9 0 21 -4 27 -10 31 -31 201 -51 304 -36 91 13 254 52 350 84 8 3 22 6 30
7 31 4 116 18 130 22 30 8 320 10 362 3 24 -5 59 -10 78 -13 40 -5 88 -16 110
-24 8 -3 24 -8 35 -9 11 -2 55 -13 99 -25 43 -11 87 -22 98 -24 11 -2 27 -6
36 -9 72 -23 276 -23 312 -1 5 3 18 8 27 10 67 13 224 109 335 205 81 70 267
257 338 339 30 35 64 73 75 85 11 12 38 44 60 71 22 28 44 55 50 61 11 12 20
23 131 169 137 180 347 507 369 574 3 12 10 21 15 21 5 0 11 13 15 30 4 16 11
30 16 30 5 0 9 4 9 10 0 5 13 37 29 72 59 128 71 158 71 173 0 8 4 15 8 15 5
0 9 6 9 13 1 6 17 58 37 114 37 106 104 365 110 430 3 21 5 38 6 38 3 0 9 39
15 90 3 28 8 61 10 75 29 195 34 629 11 827 -3 27 -8 66 -11 88 -10 87 -36
234 -55 310 -11 44 -23 91 -26 104 -3 14 -8 29 -12 35 -3 6 -8 19 -9 29 -10
61 -110 258 -181 355 -90 123 -255 273 -344 314 -16 7 -28 16 -28 20 0 5 -6 8
-14 8 -8 0 -16 4 -18 8 -5 12 -188 96 -278 127 -3 1 -12 4 -20 8 -30 12 -186
54 -230 61 -172 30 -395 24 -540 -14 -19 -5 -46 -11 -60 -13 -14 -3 -45 -11
-70 -17 -25 -7 -52 -14 -60 -16 -8 -2 -42 -10 -75 -19 -33 -9 -69 -18 -80 -20
-65 -15 -133 -28 -150 -30 -23 -2 -108 -15 -145 -21 -14 -3 -68 -7 -120 -10
-52 -3 -101 -7 -107 -9 -7 -3 -14 0 -14 5 -2 13 -4 21 -13 45 -4 11 -13 34
-18 50 -6 17 -24 58 -40 93 -15 35 -28 64 -28 65 0 1 33 2 73 2 71 1 218 11
287 19 19 3 62 7 94 11 56 5 100 11 155 20 13 2 45 8 70 12 25 4 48 7 51 8
130 27 271 74 320 105 8 6 24 14 35 19 72 31 221 177 268 261 7 14 24 43 37
65 14 21 25 45 26 53 1 7 9 23 16 35 14 22 45 99 53 133 3 11 18 67 34 126 16
60 32 123 34 140 22 141 56 269 90 335 13 24 14 33 4 45 -10 13 -19 14 -60 3z"/>
</g>
</svg>
