<?xml version="1.0" standalone="no"?>
<!DOCTYPE svg PUBLIC "-//W3C//DTD SVG 20010904//EN"
 "http://www.w3.org/TR/2001/REC-SVG-20010904/DTD/svg10.dtd">
<svg version="1.0" xmlns="http://www.w3.org/2000/svg"
 width="792.000000pt" height="792.000000pt" viewBox="0 0 792.000000 792.000000"
 preserveAspectRatio="xMidYMid meet">
<metadata>
Created by potrace 1.14, written by Peter Selinger 2001-2017
</metadata>
<g transform="translate(0.000000,792.000000) scale(0.100000,-0.100000)"
fill="#000000" stroke="none">
<path d="M5385 7289 c-16 -5 -46 -12 -65 -15 -19 -3 -38 -8 -41 -10 -10 -6
-196 -42 -254 -49 -28 -4 -57 -8 -65 -10 -8 -2 -39 -7 -69 -10 -30 -4 -63 -8
-73 -10 -11 -2 -46 -7 -79 -10 -33 -4 -70 -8 -82 -11 -12 -2 -40 -7 -62 -10
-22 -3 -58 -10 -80 -16 -22 -6 -51 -12 -65 -13 -14 -1 -52 -10 -85 -19 -291
-83 -481 -201 -613 -378 -54 -74 -125 -209 -137 -263 -2 -5 -8 -30 -15 -55
-14 -48 -17 -74 -19 -129 l-1 -34 -31 39 c-42 53 -109 157 -144 226 -30 60
-55 76 -78 49 -12 -15 -51 -89 -52 -101 0 -3 -10 -21 -23 -41 -12 -20 -22 -40
-22 -45 0 -5 -19 -29 -41 -54 -70 -77 -74 -86 -55 -115 10 -15 65 -50 134 -85
143 -73 172 -90 214 -122 55 -42 107 -95 101 -102 -4 -3 -1 -6 5 -6 24 0 102
-139 117 -209 l7 -33 -73 6 c-41 3 -85 8 -99 11 -14 3 -45 7 -69 10 -24 3 -47
7 -50 10 -4 2 -25 6 -47 9 -21 3 -131 28 -244 56 -113 28 -216 52 -230 54 -14
2 -45 8 -70 12 -57 11 -320 11 -380 0 -25 -4 -54 -9 -65 -11 -55 -9 -222 -57
-260 -74 -11 -5 -45 -19 -75 -31 -138 -56 -313 -160 -397 -235 -87 -79 -98
-90 -132 -130 -85 -101 -118 -151 -175 -270 -31 -65 -76 -176 -80 -200 -1 -5
-5 -16 -9 -22 -5 -7 -6 -13 -3 -13 3 0 1 -12 -5 -27 -6 -16 -12 -35 -14 -43
-2 -8 -8 -35 -14 -60 -5 -25 -13 -61 -16 -80 -25 -150 -28 -175 -40 -280 -15
-145 -22 -515 -11 -635 13 -138 17 -183 21 -210 9 -74 16 -132 20 -150 29
-153 41 -206 66 -300 17 -60 31 -115 33 -122 1 -7 5 -16 9 -19 4 -4 7 -15 7
-25 0 -10 7 -33 15 -51 8 -18 26 -64 41 -103 77 -207 208 -453 367 -690 75
-112 255 -354 311 -418 14 -16 40 -47 58 -70 141 -173 341 -378 487 -497 23
-19 48 -40 54 -45 7 -6 30 -22 52 -35 22 -13 42 -26 45 -29 12 -13 89 -50 150
-72 98 -35 277 -32 406 6 27 7 60 16 74 19 14 3 52 13 85 21 33 9 71 18 85 21
14 3 32 7 41 10 15 4 45 9 124 20 42 5 271 5 325 -1 56 -6 114 -18 221 -45 46
-12 91 -23 99 -25 8 -2 42 -11 75 -20 117 -32 279 -40 364 -18 86 22 207 85
306 160 80 61 315 286 405 388 77 87 166 193 190 224 14 18 35 45 47 59 25 31
128 166 158 208 11 15 35 47 53 71 17 24 32 45 32 48 0 3 17 31 39 63 58 86
136 214 152 250 8 18 17 32 21 32 5 0 8 9 8 19 0 11 3 21 8 23 9 4 62 110 62
124 0 7 7 17 15 24 8 7 15 18 15 26 0 7 13 41 29 76 16 35 35 82 43 106 7 23
15 42 18 42 3 0 7 12 8 26 1 15 6 32 11 38 5 6 12 27 16 46 4 19 10 40 13 45
4 6 7 15 8 20 1 6 7 30 14 55 7 25 14 52 15 60 1 8 8 35 14 60 7 25 15 60 17
79 3 19 7 37 9 42 3 4 8 29 11 56 3 26 7 55 9 63 9 34 16 103 32 300 21 264
-2 737 -44 900 -3 14 -6 28 -5 33 3 10 -49 219 -56 232 -4 6 -7 17 -9 25 -5
32 -75 195 -108 252 -19 32 -35 63 -35 68 0 4 -4 10 -8 12 -5 2 -23 25 -41 51
-39 58 -147 169 -216 223 -27 21 -51 42 -53 47 -2 4 -8 7 -12 7 -8 0 -66 35
-95 57 -20 16 -204 104 -245 118 -3 1 -12 5 -20 8 -25 12 -174 58 -200 63 -14
3 -42 9 -63 15 -67 18 -129 23 -277 23 -160 0 -163 0 -390 -49 -8 -1 -35 -8
-60 -15 -25 -7 -52 -14 -60 -16 -52 -14 -281 -64 -310 -68 -108 -15 -204 -26
-271 -30 l-77 -5 -27 77 c-15 42 -34 92 -42 110 -9 18 -14 34 -12 36 2 2 60 6
129 10 69 3 136 8 150 10 14 2 57 7 95 11 70 6 108 11 175 21 19 3 49 7 67 10
17 2 62 11 100 19 37 9 79 18 92 21 100 22 249 89 326 147 54 41 142 133 174
182 14 22 28 42 31 45 3 3 12 19 20 35 8 17 17 32 20 35 20 20 98 218 106 270
3 19 10 42 14 50 5 9 20 74 34 145 14 72 27 141 30 155 10 50 33 127 45 148 6
12 8 22 4 22 -4 0 -2 4 6 9 7 5 14 26 15 46 1 33 -2 38 -24 41 -14 1 -38 -2
-55 -7z"/>
</g>
</svg>
